# xmcd
#
# Track frame offsets: 
#        183
#        15545
#        33668
#        50893
#        68623
#        87978
#        104110
#        122815
#        145483
#        165070
#        185238
#        205995
#        226818
#
# Disc length: 3268 seconds
#
# Revision: 6
# Processed by: cddbd v1.5.2PL0 Copyright (c) Steve Scherf et al.
# Submitted via: ExactAudioCopy v1.0b3
#
DISCID=ba0cc20d
DTITLE=譚詠麟 - 我的生命我的愛
DYEAR=1992
DGENRE=Pop
TTITLE0=我的生命我的愛
TTITLE1=俗世洪流
TTITLE2=情人
TTITLE3=只有你
TTITLE4=路疊路
TTITLE5=Elaine
TTITLE6=幫我，欺騙我
TTITLE7=知不知
TTITLE8=再等幾天
TTITLE9=愛·極愛
TTITLE10=世外桃源
TTITLE11=淩晨一吻 (live)
TTITLE12=滔滔千里心 (live)
EXTD=
EXTT0=
EXTT1=
EXTT2=
EXTT3=
EXTT4=
EXTT5=
EXTT6=
EXTT7=
EXTT8=
EXTT9=
EXTT10=
EXTT11=
EXTT12=
PLAYORDER=
